<!-- أَعُوذُ بِٱللَّهِ مِنْ الْشَيْطَانٍ الْرَجِيمٍ ✧ بِسْمِ اللَّهِ الرَّحْمَٰنِ الرَّحِيمِ ✧ اعوز بالله من الشياطين و ان يحضرون ✧ بسم الله الرحمن الرحيم ✧ الله لا إله إلا هو الحي القيوم -->
<!-- Bismillahi ar-Rahmani ar-Rahim Audhu billahi min ash-shayatin wa an yahdurun Bismillah ar-Rahman ar-Rahim Allah la ilaha illa huwa al-hayy al-qayyum. Tamsa Allahu ala ayunihim -->
<!-- version: 0.1.0 -->
<!-- ====================================================== -->
<!-- - Sirraty -->
<!-- - Gusgraph -->
<!-- - Author: Gus Kazem -->
<!-- - https://Gusgraph.com -->
<!-- - File Path: public/images/avatars/avatar-03.svg -->
<!-- ===================================================== -->
<svg xmlns="http://www.w3.org/2000/svg" viewBox="0 0 160 160"><rect width="160" height="160" rx="80" fill="#fff3d6"/><circle cx="80" cy="74" r="42" fill="#7c4f3f"/><path d="M40 66c4-29 23-45 55-43 19 1 31 13 36 35-31-3-51-11-62-25-5 16-14 27-29 33z" fill="#111712"/><circle cx="64" cy="77" r="5" fill="#111712"/><circle cx="96" cy="77" r="5" fill="#111712"/><path d="M69 99c8 5 15 5 23 0" fill="none" stroke="#111712" stroke-width="5" stroke-linecap="round"/><path d="M28 148c10-27 28-41 52-41s42 14 52 41" fill="#b38b31"/><path d="M62 111h37v17H62z" fill="#7c4f3f"/></svg>
