<!-- أَعُوذُ بِٱللَّهِ مِنْ الْشَيْطَانٍ الْرَجِيمٍ ✧ بِسْمِ اللَّهِ الرَّحْمَٰنِ الرَّحِيمِ ✧ اعوز بالله من الشياطين و ان يحضرون ✧ بسم الله الرحمن الرحيم ✧ الله لا إله إلا هو الحي القيوم -->
<!-- Bismillahi ar-Rahmani ar-Rahim Audhu billahi min ash-shayatin wa an yahdurun Bismillah ar-Rahman ar-Rahim Allah la ilaha illa huwa al-hayy al-qayyum. Tamsa Allahu ala ayunihim -->
<!-- version: 0.1.0 -->
<!-- ====================================================== -->
<!-- - Sirraty -->
<!-- - Gusgraph -->
<!-- - Author: Gus Kazem -->
<!-- - https://Gusgraph.com -->
<!-- - File Path: public/images/avatars/avatar-08.svg -->
<!-- ===================================================== -->
<svg xmlns="http://www.w3.org/2000/svg" viewBox="0 0 160 160"><rect width="160" height="160" rx="80" fill="#f7fee7"/><path d="M36 79c0-33 18-54 44-54s44 21 44 54v44H36z" fill="#2b4730"/><circle cx="80" cy="77" r="39" fill="#8d5e49"/><path d="M45 69c20 0 36-8 49-24 9 12 18 20 27 24-4-26-18-39-41-39S49 43 45 69z" fill="#2b4730"/><circle cx="65" cy="79" r="5" fill="#17221c"/><circle cx="96" cy="79" r="5" fill="#17221c"/><path d="M70 101c8 5 17 5 25 0" fill="none" stroke="#17221c" stroke-width="5" stroke-linecap="round"/><path d="M29 149c10-29 27-43 51-43s41 14 51 43" fill="#5a9b4d"/></svg>
