<!-- أَعُوذُ بِٱللَّهِ مِنْ الْشَيْطَانٍ الْرَجِيمٍ ✧ بِسْمِ اللَّهِ الرَّحْمَٰنِ الرَّحِيمِ ✧ اعوز بالله من الشياطين و ان يحضرون ✧ بسم الله الرحمن الرحيم ✧ الله لا إله إلا هو الحي القيوم -->
<!-- Bismillahi ar-Rahmani ar-Rahim Audhu billahi min ash-shayatin wa an yahdurun Bismillah ar-Rahman ar-Rahim Allah la ilaha illa huwa al-hayy al-qayyum. Tamsa Allahu ala ayunihim -->
<!-- version: 0.1.0 -->
<!-- ====================================================== -->
<!-- - Sirraty -->
<!-- - Gusgraph -->
<!-- - Author: Gus Kazem -->
<!-- - https://Gusgraph.com -->
<!-- - File Path: public/images/avatars/avatar-02.svg -->
<!-- ===================================================== -->
<svg xmlns="http://www.w3.org/2000/svg" viewBox="0 0 160 160"><rect width="160" height="160" rx="80" fill="#eaf4ff"/><path d="M35 73c0-31 20-52 46-52 28 0 49 23 49 55v41H35z" fill="#2f2631"/><circle cx="80" cy="77" r="41" fill="#c7896b"/><circle cx="65" cy="78" r="5" fill="#17221c"/><circle cx="96" cy="78" r="5" fill="#17221c"/><path d="M67 101c9 7 20 7 29 0" fill="none" stroke="#17221c" stroke-width="5" stroke-linecap="round"/><path d="M27 149c11-29 29-43 53-43s42 14 53 43" fill="#3f7fbf"/><path d="M43 67c25 3 48-6 67-27 13 8 19 20 19 34-17-5-31-13-43-25-11 11-25 17-43 18z" fill="#2f2631"/></svg>
