<!-- أَعُوذُ بِٱللَّهِ مِنْ الْشَيْطَانٍ الْرَجِيمٍ ✧ بِسْمِ اللَّهِ الرَّحْمَٰنِ الرَّحِيمِ ✧ اعوز بالله من الشياطين و ان يحضرون ✧ بسم الله الرحمن الرحيم ✧ الله لا إله إلا هو الحي القيوم -->
<!-- Bismillahi ar-Rahmani ar-Rahim Audhu billahi min ash-shayatin wa an yahdurun Bismillah ar-Rahman ar-Rahim Allah la ilaha illa huwa al-hayy al-qayyum. Tamsa Allahu ala ayunihim -->
<!-- version: 0.1.0 -->
<!-- ====================================================== -->
<!-- - Sirraty -->
<!-- - Gusgraph -->
<!-- - Author: Gus Kazem -->
<!-- - https://Gusgraph.com -->
<!-- - File Path: public/images/avatars/avatar-09.svg -->
<!-- ===================================================== -->
<svg xmlns="http://www.w3.org/2000/svg" viewBox="0 0 160 160"><rect width="160" height="160" rx="80" fill="#fef3c7"/><circle cx="80" cy="76" r="42" fill="#d09972"/><path d="M37 72c4-31 22-48 52-48 20 0 34 10 42 31-34 1-57-7-69-25-9 8-17 22-25 42z" fill="#4a342a"/><circle cx="64" cy="78" r="5" fill="#17221c"/><circle cx="96" cy="78" r="5" fill="#17221c"/><path d="M67 101c9 7 19 7 28 0" fill="none" stroke="#17221c" stroke-width="5" stroke-linecap="round"/><path d="M29 149c11-29 28-43 51-43s40 14 51 43" fill="#d1892d"/><path d="M54 54c15 9 34 12 58 9" fill="none" stroke="#4a342a" stroke-width="8" stroke-linecap="round"/></svg>
