<!-- أَعُوذُ بِٱللَّهِ مِنْ الْشَيْطَانٍ الْرَجِيمٍ ✧ بِسْمِ اللَّهِ الرَّحْمَٰنِ الرَّحِيمِ ✧ اعوز بالله من الشياطين و ان يحضرون ✧ بسم الله الرحمن الرحيم ✧ الله لا إله إلا هو الحي القيوم -->
<!-- Bismillahi ar-Rahmani ar-Rahim Audhu billahi min ash-shayatin wa an yahdurun Bismillah ar-Rahman ar-Rahim Allah la ilaha illa huwa al-hayy al-qayyum. Tamsa Allahu ala ayunihim -->
<!-- version: 0.1.0 -->
<!-- ====================================================== -->
<!-- - Sirraty -->
<!-- - Gusgraph -->
<!-- - Author: Gus Kazem -->
<!-- - https://Gusgraph.com -->
<!-- - File Path: public/images/avatars/avatar-07.svg -->
<!-- ===================================================== -->
<svg xmlns="http://www.w3.org/2000/svg" viewBox="0 0 160 160"><rect width="160" height="160" rx="80" fill="#eef2ff"/><circle cx="80" cy="76" r="42" fill="#6f4a3a"/><path d="M38 68c6-27 23-43 49-43 23 0 38 14 43 43-36 2-62-7-78-27-6 7-10 16-14 27z" fill="#111712"/><circle cx="64" cy="78" r="5" fill="#111712"/><circle cx="96" cy="78" r="5" fill="#111712"/><path d="M69 98c8 7 18 7 26 0" fill="none" stroke="#111712" stroke-width="5" stroke-linecap="round"/><path d="M31 149c11-29 27-43 49-43s38 14 49 43" fill="#5765d9"/><path d="M51 61h57" stroke="#111712" stroke-width="7" stroke-linecap="round"/></svg>
