<!-- أَعُوذُ بِٱللَّهِ مِنْ الْشَيْطَانٍ الْرَجِيمٍ ✧ بِسْمِ اللَّهِ الرَّحْمَٰنِ الرَّحِيمِ ✧ اعوز بالله من الشياطين و ان يحضرون ✧ بسم الله الرحمن الرحيم ✧ الله لا إله إلا هو الحي القيوم -->
<!-- Bismillahi ar-Rahmani ar-Rahim Audhu billahi min ash-shayatin wa an yahdurun Bismillah ar-Rahman ar-Rahim Allah la ilaha illa huwa al-hayy al-qayyum. Tamsa Allahu ala ayunihim -->
<!-- version: 0.1.0 -->
<!-- ====================================================== -->
<!-- - Sirraty -->
<!-- - Gusgraph -->
<!-- - Author: Gus Kazem -->
<!-- - https://Gusgraph.com -->
<!-- - File Path: public/images/avatars/avatar-05.svg -->
<!-- ===================================================== -->
<svg xmlns="http://www.w3.org/2000/svg" viewBox="0 0 160 160"><rect width="160" height="160" rx="80" fill="#e8fff8"/><circle cx="80" cy="77" r="41" fill="#b9795d"/><path d="M40 73c2-29 19-47 47-47 20 0 34 11 41 33-27 0-51-8-72-23-8 8-13 20-16 37z" fill="#3d2b24"/><circle cx="65" cy="79" r="5" fill="#17221c"/><circle cx="96" cy="79" r="5" fill="#17221c"/><path d="M62 98c11 13 25 13 36 0" fill="none" stroke="#17221c" stroke-width="5" stroke-linecap="round"/><path d="M30 149c10-29 27-43 50-43s40 14 50 43" fill="#2f9d73"/><circle cx="80" cy="118" r="7" fill="#fffdf7"/></svg>
