<!-- أَعُوذُ بِٱللَّهِ مِنْ الْشَيْطَانٍ الْرَجِيمٍ ✧ بِسْمِ اللَّهِ الرَّحْمَٰنِ الرَّحِيمِ ✧ اعوز بالله من الشياطين و ان يحضرون ✧ بسم الله الرحمن الرحيم ✧ الله لا إله إلا هو الحي القيوم -->
<!-- Bismillahi ar-Rahmani ar-Rahim Audhu billahi min ash-shayatin wa an yahdurun Bismillah ar-Rahman ar-Rahim Allah la ilaha illa huwa al-hayy al-qayyum. Tamsa Allahu ala ayunihim -->
<!-- version: 0.1.0 -->
<!-- ====================================================== -->
<!-- - Sirraty -->
<!-- - Gusgraph -->
<!-- - Author: Gus Kazem -->
<!-- - https://Gusgraph.com -->
<!-- - File Path: public/images/avatars/avatar-06.svg -->
<!-- ===================================================== -->
<svg xmlns="http://www.w3.org/2000/svg" viewBox="0 0 160 160"><rect width="160" height="160" rx="80" fill="#fff1f2"/><path d="M32 81c0-37 20-59 48-59s48 22 48 59v45H32z" fill="#8b354f"/><circle cx="80" cy="78" r="39" fill="#efb28f"/><path d="M44 68c19-1 35-9 48-25 9 13 18 21 27 25-4-27-18-40-39-40S48 42 44 68z" fill="#8b354f"/><circle cx="65" cy="80" r="5" fill="#17221c"/><circle cx="96" cy="80" r="5" fill="#17221c"/><path d="M69 103c9 6 18 6 27 0" fill="none" stroke="#17221c" stroke-width="5" stroke-linecap="round"/><path d="M29 149c11-29 28-43 51-43s40 14 51 43" fill="#d8557d"/></svg>
