<!-- أَعُوذُ بِٱللَّهِ مِنْ الْشَيْطَانٍ الْرَجِيمٍ ✧ بِسْمِ اللَّهِ الرَّحْمَٰنِ الرَّحِيمِ ✧ اعوز بالله من الشياطين و ان يحضرون ✧ بسم الله الرحمن الرحيم ✧ الله لا إله إلا هو الحي القيوم -->
<!-- Bismillahi ar-Rahmani ar-Rahim Audhu billahi min ash-shayatin wa an yahdurun Bismillah ar-Rahman ar-Rahim Allah la ilaha illa huwa al-hayy al-qayyum. Tamsa Allahu ala ayunihim -->
<!-- version: 0.1.0 -->
<!-- ====================================================== -->
<!-- - Sirraty -->
<!-- - Gusgraph -->
<!-- - Author: Gus Kazem -->
<!-- - https://Gusgraph.com -->
<!-- - File Path: public/images/avatars/avatar-04.svg -->
<!-- ===================================================== -->
<svg xmlns="http://www.w3.org/2000/svg" viewBox="0 0 160 160"><rect width="160" height="160" rx="80" fill="#f3e8ff"/><path d="M35 79c0-34 19-55 45-55s45 21 45 55v47H35z" fill="#5b3b6d"/><circle cx="80" cy="77" r="39" fill="#d7a17f"/><path d="M43 73c14-2 26-9 36-21 13 14 27 21 41 21-6-28-20-42-41-42S48 45 43 73z" fill="#5b3b6d"/><circle cx="64" cy="79" r="5" fill="#17221c"/><circle cx="96" cy="79" r="5" fill="#17221c"/><path d="M68 101c8 7 18 7 26 0" fill="none" stroke="#17221c" stroke-width="5" stroke-linecap="round"/><path d="M29 149c10-29 27-43 51-43s41 14 51 43" fill="#8d55ba"/></svg>
